# xmcd CD database file
#
# Track frame offsets:
#	150
#	10707
#	36289
#	74062
#	102239
#	121174
#	155111
#	174622
#	200005
#	230911
#	248769
#	273863
#	288430
#
# Disc length: 4080 seconds
#
# Revision: 1
# Processed by: cddbd v1.5.2PL0 Copyright (c) Steve Scherf et al.
# Submitted via: CDex 1.51
#
DISCID=bf0fee0d
DTITLE=Michal Zebrowski - Zakochany Pan Tadeusz - Dzordz and Gonzo - Studio
DYEAR=1999
DGENRE=Vocal
TTITLE0=Inwokacaja
TTITLE1=Powrot panicza  - spotkanie w pokoiku
TTITLE2=Spotkanie drugie u stolu
TTITLE3=Telimena w swiatyni dumania
TTITLE4=Przebudzenie Tadeusza
TTITLE5=Plany mysliwskie telimeny - powtorne spotkanie - mrowki
TTITLE6=Wieczerza w zamczysku
TTITLE7=Nowe klopoty Tadeusza
TTITLE8=Niewdzieczny
TTITLE9=Pozegnanie Tadeusza i Zosi
TTITLE10=Ulan i dziewczyna
TTITLE11=Chmurki wroza pogode
TTITLE12=Wspomnienie
EXTD=YEAR: 1999
EXTT0=
EXTT1=
EXTT2=
EXTT3=
EXTT4=
EXTT5=
EXTT6=
EXTT7=
EXTT8=
EXTT9=
EXTT10=
EXTT11=
EXTT12=
PLAYORDER=
